<?xml version="1.0" encoding="utf-8"?>
<!-- Generator: Adobe Illustrator 16.0.0, SVG Export Plug-In . SVG Version: 6.00 Build 0)  -->
<!DOCTYPE svg PUBLIC "-//W3C//DTD SVG 1.1//EN" "http://www.w3.org/Graphics/SVG/1.1/DTD/svg11.dtd">
<svg version="1.1" id="Ebene_1" xmlns="http://www.w3.org/2000/svg" xmlns:xlink="http://www.w3.org/1999/xlink" x="0px" y="0px"
	 width="244.642px" height="156.606px" viewBox="0 0 244.642 156.606" enable-background="new 0 0 244.642 156.606"
	 xml:space="preserve">
<path fill="#B20933" d="M0,0.021h228.864c0,0,15.778-1.306,15.778,16.882c0,16.218,0,139.704,0,139.704H0V0.021z"/>
<rect x="80.9" y="20.721" fill="#FFFFFF" width="31.005" height="31.005"/>
<rect x="11.768" y="72.089" fill="#FFFFFF" width="13.739" height="5.479"/>
<path fill="#FFFFFF" d="M24.779,135.936V72.029V34.557c0,0-1.316-13.779,13.168-13.779c14.885,0,37.425,0,37.425,0v5.42H65.36
	c0,0-9.639-0.429-9.639,9.943c0,9.598,0,40.85,0,40.85v58.945H24.779z"/>
<path fill="#FFFFFF" d="M61.235,72.108h147.874c0,0,15.195-1.287,15.195,14.379c0,14.706,0,49.065,0,49.065h-30.782V87.314
	c0,0,0.154-9.814-9.433-9.814c-8.17,0-15.83,0-15.83,0v58.053h-30.975V87.324c0,0,0.208-9.987-9.431-9.987
	c-10.131,0-15.967,0-15.967,0v58.5H80.841V77.5H61.233L61.235,72.108z"/>
</svg>
